<?xml version="1.0" encoding="UTF-8" standalone="no"?>
<!-- Created with Inkscape (http://www.inkscape.org/) -->

<svg
   width="193.86449mm"
   height="51.52457mm"
   viewBox="0 0 193.86449 51.52457"
   version="1.1"
   id="svg1"
   xml:space="preserve"
   xmlns:inkscape="http://www.inkscape.org/namespaces/inkscape"
   xmlns:sodipodi="http://sodipodi.sourceforge.net/DTD/sodipodi-0.dtd"
   xmlns="http://www.w3.org/2000/svg"
   xmlns:svg="http://www.w3.org/2000/svg"><sodipodi:namedview
     id="namedview1"
     pagecolor="#505050"
     bordercolor="#eeeeee"
     borderopacity="1"
     inkscape:showpageshadow="0"
     inkscape:pageopacity="0"
     inkscape:pagecheckerboard="0"
     inkscape:deskcolor="#505050"
     inkscape:document-units="mm" /><defs
     id="defs1" /><g
     inkscape:label="Layer 1"
     inkscape:groupmode="layer"
     id="layer1"
     transform="translate(-5.3798319,-70.78906)"><g
       id="g86"
       inkscape:export-filename="UnderConstruction.svg"
       inkscape:export-xdpi="96"
       inkscape:export-ydpi="96"><path
         id="path68-2-2"
         style="fill:#fda900;fill-opacity:1;stroke:none;stroke-width:0.529167;stroke-linecap:round;stroke-linejoin:round;stroke-dasharray:none;stroke-opacity:1;paint-order:markers fill stroke"
         d="m 8.656633,94.678085 c 0,0 -1.494639,0.42092 -1.995227,0.96429 -0.4721,0.51245 -0.752409,1.95026 -0.752409,1.95026 v 10.638625 8.62997 c 0,0 -0.154677,2.8046 0.638721,3.82508 0.557815,0.71748 2.495455,1.09813 2.495455,1.09813 H 29.801596 40.573031 194.96618 c 1.62114,0 2.21127,-0.17911 2.9378,-0.90124 0.64098,-0.63708 0.8108,-1.34108 0.8108,-2.58692 v -3.52278 c 0,0 -6.84015,-6.11821 -11.11973,-6.54224 -4.12126,-0.40835 -7.11045,2.56518 -11.20706,1.9575 -3.35973,-0.49837 -5.44964,-3.15966 -8.77001,-3.87469 -3.07491,-0.66218 -8.52196,0.60616 -8.52196,0.60616 0,0 -3.8863,-1.81477 -5.74176,-3.64526 -2.07482,-2.04686 -6.79447,-1.21991 -9.70897,-1.20561 l -4.40697,-7.391275 z" /><path
         id="path69-8-8"
         style="fill:#ffaa01;fill-opacity:1;stroke:none;stroke-width:0.529167;stroke-linecap:round;stroke-linejoin:round;stroke-dasharray:none;stroke-opacity:1;paint-order:markers fill stroke"
         d="m 8.656633,94.678085 c 0,0 -1.49464,0.42092 -1.995227,0.96428 -0.472101,0.51245 -0.752409,1.95028 -0.752409,1.95028 v 10.638615 8.62996 c 0,0 -0.154678,2.8046 0.63872,3.82509 0.557816,0.71749 2.495455,1.09812 2.495455,1.09812 h 20.758423 10.771436 c 0,0 16.708532,-2.69241 25.134383,-3.37085 44.209406,-3.55965 133.007376,-3.64009 133.007376,-3.64009 0,0 -6.84016,-6.11821 -11.11974,-6.54223 -4.12125,-0.40836 -7.11045,2.56519 -11.20706,1.9575 -3.35973,-0.49837 -5.44964,-3.15966 -8.77001,-3.8747 -3.07491,-0.66218 -8.52196,0.60616 -8.52196,0.60616 0,0 -3.8863,-1.81476 -5.74177,-3.64525 -2.07481,-2.04687 -6.79447,-1.21991 -9.70897,-1.2056 l -4.40696,-7.391285 z" /><path
         id="path70-3-0"
         style="fill:#ffbb33;fill-opacity:1;stroke:none;stroke-width:0.529167;stroke-linecap:round;stroke-linejoin:round;stroke-dasharray:none;stroke-opacity:1;paint-order:markers fill stroke"
         d="m 8.656633,94.678095 c 0,0 -1.49464,0.42091 -1.995227,0.96428 -0.472101,0.51245 -0.752409,1.95027 -0.752409,1.95027 v 10.638615 8.62997 c 0,0 -0.154678,2.8046 0.63872,3.82509 0.557816,0.71748 2.495455,1.09812 2.495455,1.09812 h 20.758423 c 0,0 20.423579,-7.70707 31.07769,-9.84487 13.595137,-2.72794 27.56653,-3.73961 41.432605,-3.70831 10.95412,0.0248 21.76566,3.28143 32.7179,3.07733 7.84873,-0.14626 24.06623,-4.38837 24.06623,-4.38837 0,0 -3.8863,-1.81476 -5.74177,-3.64525 -2.07481,-2.04687 -6.79447,-1.21991 -9.70897,-1.20561 l -4.40696,-7.391275 z" /><path
         id="path71-5-5"
         style="fill:#ffcc65;fill-opacity:1;stroke:none;stroke-width:0.529167;stroke-linecap:round;stroke-linejoin:round;stroke-dasharray:none;stroke-opacity:1;paint-order:markers fill stroke"
         d="m 8.656633,94.678085 c 0,0 -1.49464,0.42092 -1.995227,0.96428 -0.472101,0.51245 -0.752409,1.95028 -0.752409,1.95028 v 10.638605 8.62997 c 0,0 -0.154677,2.8046 0.638721,3.82509 0.557815,0.71749 2.495455,1.09812 2.495455,1.09812 0,0 24.320187,-8.26607 36.826692,-11.08097 14.171123,-3.18957 28.623687,-5.16364 43.08471,-6.53346 18.162365,-1.72043 54.690695,-2.10064 54.690695,-2.10064 l -4.40696,-7.391275 z"
         sodipodi:nodetypes="cscccscssccc" /><path
         style="fill:#ffdd99;fill-opacity:1;stroke:none;stroke-width:0.529167;stroke-linecap:round;stroke-linejoin:round;stroke-dasharray:none;stroke-opacity:1;paint-order:markers fill stroke"
         d="M 5.908565,108.23131 V 97.592635 c 0,0 0.280333,-1.43773 0.752434,-1.95018 0.500588,-0.54337 1.995634,-0.96436 1.995634,-0.96436 H 139.23833 c 0,0 -65.774213,3.93311 -98.461125,7.890455 -11.689797,1.41526 -34.86864,5.66276 -34.86864,5.66276 z"
         id="path72-3-1"
         sodipodi:nodetypes="ccsccsc" /><path
         id="rect62-1"
         style="fill:none;stroke:#000000;stroke-width:1.05833;stroke-linecap:round;stroke-linejoin:round;paint-order:markers fill stroke"
         d="m 175.91917,94.678035 h 19.86809 c 1.62206,0 2.92791,1.30585 2.92791,2.92792 v 21.250585 c 0,1.62207 -1.30585,2.92792 -2.92791,2.92792 H 8.836912 c -1.622065,0 -2.927915,-1.30585 -2.927915,-2.92792 V 97.605955 c 0,-1.62207 1.30585,-2.92792 2.927915,-2.92792 l 140.237858,-10e-6"
         sodipodi:nodetypes="cssssssssc" /><path
         style="fill:none;fill-opacity:1;stroke:#000000;stroke-width:1.05833;stroke-linecap:round;stroke-linejoin:round;stroke-dasharray:none;stroke-opacity:1;paint-order:markers fill stroke"
         d="m 189.49036,71.318225 -13.42221,23.24794"
         id="path73-6"
         inkscape:transform-center-x="-6.753301"
         inkscape:transform-center-y="-11.722911" /><path
         style="fill:#000000;fill-opacity:1;stroke:none;stroke-width:1.058;stroke-linecap:round;stroke-linejoin:round;stroke-dasharray:none;stroke-opacity:1;paint-order:markers fill stroke"
         d="m 192.43458,86.610785 c 0,0 0.82925,-3.03523 1.38998,-6.67636 l 7.7e-4,-0.005 c 0.13019,-0.83456 0.0331,-1.20424 0.2387,-2.29543 0.24024,-1.27528 -0.11641,-1.43077 -0.94545,-2.60066 -0.98006,-1.38299 -2.00556,-0.86396 -2.86649,-2.4301 -0.20396,-0.37103 0.26377,-0.80317 -0.36523,-1.1354 l -1.09638,1.93555 c 0,0 0.26168,0.44769 0.76004,0.56649 0.78641,0.18746 2.19538,1.62167 2.19538,1.62167 0,0 -0.0124,0.12429 -0.3784,0.13533 -0.80582,0.0243 -1.65302,0.63687 -2.01592,1.3362 -0.3629,0.69933 -0.44665,1.43333 0.0649,2.30785 0.51155,0.87452 -0.0979,1.02608 -0.79429,1.94136 -0.86437,1.13599 -1.39438,1.24101 -1.39438,1.24101 0,0 -0.82558,-0.112 -1.50089,-0.75988 -0.71934,-0.69013 -1.27774,-0.82494 -1.27774,-0.82494 l -1.10748,1.87622 c 0,0 0.0901,0.30077 0.54639,0.0975 0.82635,-0.36816 0.64044,-0.45939 0.93711,-0.44741 0.41455,0.0167 1.24928,0.54594 1.63741,1.01379 0.50744,0.61167 1.07233,0.76486 1.07233,0.76486 0,0 0.33044,-0.0224 0.96513,-0.85465 0.55141,-0.72304 0.95174,-0.85465 0.95174,-0.85465 0,0 0.26857,-0.007 0.41563,1.73924 0.0488,0.57973 0.14581,1.73924 0.14581,1.73924 0,0 -1.4033,1.97656 -2.41578,4.19866 -0.69811,1.53214 -1.72982,2.59847 -2.86743,2.91749 -0.33191,0.0931 -0.65017,0.33772 -0.80974,0.64328 -0.0536,0.10268 -0.0219,0.34682 -0.0219,0.34682 h 3.21238 l 0.0725,-0.36315 c 0,0 2.50034,-5.29943 3.69234,-5.11193 0.76791,0.12079 3.39847,4.21384 2.31406,4.48492 -0.6222,0.15554 -0.80981,0.64334 -0.80981,0.64334 l -0.0219,0.34682 h 3.21238 l 0.0725,-0.36315 z"
         id="path74-3"
         sodipodi:nodetypes="csssssccscszzscsccssscscscssscccssccccc" /><path
         style="fill:#000000;fill-opacity:1;stroke:none;stroke-width:1.058;stroke-linecap:round;stroke-linejoin:round;stroke-dasharray:none;stroke-opacity:1;paint-order:markers fill stroke"
         d="m 144.73382,82.844205 c 0,0 1.9472,3.83289 3.06047,5.66937 0.11042,0.18215 0.27785,0.33194 0.35814,0.52923 0.0909,0.22346 0.12821,0.71233 0.12821,0.71233 0,0 -0.46735,-0.052 -0.71883,-0.003 -0.6849,0.13237 -0.84724,0.0196 -0.92949,-0.35011 -0.069,-0.31 -0.0979,-0.94769 -0.0979,-0.94769 l -2.3858,-3.75214 c 0,0 -1.46567,1.33075 -1.4255,2.20507 0.10373,2.2579 1.38115,6.15559 2.95091,6.29376 0.48228,0.0425 0.64834,0.67151 0.64834,0.67151 v 0.27632 h -3.06201 c 0,0 0.0277,-0.22951 0,-0.3391 -0.48965,-1.9394 -2.84857,-5.28158 -2.84857,-5.28158 0,0 -2.75463,3.54135 -3.90897,5.3384 -0.0546,0.0849 0,0.30298 0,0.30298 l -2.7805,-0.0207 v -0.21127 c 0,0 -0.0719,-0.51509 0.52593,-0.60358 0.58429,-0.0865 1.1979,-0.27382 1.64413,-0.66079 0.85141,-0.73834 1.19136,-2.1258 1.71552,-3.12345 0.63562,-1.20979 1.3524,-2.39862 1.75867,-3.70344 0.32492,-1.04355 0.5235,-3.23682 0.5235,-3.23682 0,0 -0.67747,0.0556 -1.01474,0.0968 -1.09927,0.13429 -1.17665,1.02689 -0.91629,1.88082 0.21723,0.71246 0.5559,1.14955 -0.2279,1.2463 -0.25041,0.0309 -0.66884,0.21732 -0.75665,-0.0192 -0.25104,-0.67611 -0.14393,-1.77768 -0.17427,-2.66858 -0.01,-0.27778 -0.002,-0.83382 -0.002,-0.83382 0,0 0.71239,-0.27571 1.20494,-0.39062 1.45178,-0.33869 4.23715,-0.43575 4.23715,-0.43575 0,0 0.36588,-0.0848 0.33543,-0.21385 -0.0746,-0.31604 -0.14481,-0.59593 -0.1456,-0.89974 -0.003,-1.2852 0.93218,-2.33212 2.32831,-2.33212 1.28105,0 2.38294,1.0013 2.33164,2.33164 -0.0837,2.17093 -2.35588,2.47282 -2.35588,2.47282 z"
         id="path75-7"
         sodipodi:nodetypes="csscssccsscccscscccsssscssssscscsssscc" /><path
         style="fill:#ffaa01;fill-opacity:1;stroke:none;stroke-width:0.529167;stroke-linecap:round;stroke-linejoin:round;stroke-dasharray:none;stroke-opacity:1;paint-order:markers fill stroke"
         d="m 155.23382,92.348185 c 0,0 -0.0663,-0.81511 -0.14004,-1.2166 -0.0887,-0.48255 -0.0524,-1.04635 -0.36249,-1.42655 -0.26554,-0.32556 -0.72054,-0.47632 -1.13422,-0.54958 -0.38189,-0.0676 -0.80674,-0.0483 -1.15762,0.11694 -0.58608,0.276 -1.3822,1.36618 -1.3822,1.36618 z"
         id="path77-4"
         sodipodi:nodetypes="csssscc" /><path
         style="fill:none;fill-opacity:0.2397;stroke:#000000;stroke-width:0.529167;stroke-linecap:round;stroke-linejoin:round;stroke-dasharray:none;stroke-opacity:1;paint-order:markers fill stroke"
         d="m 135.54273,84.287965 19.69109,8.06022"
         id="path76-4"
         sodipodi:nodetypes="cc" /><path
         style="fill:#ffdd99;fill-opacity:1;stroke:none;stroke-width:0.529167;stroke-linecap:round;stroke-linejoin:round;stroke-dasharray:none;stroke-opacity:1;paint-order:markers fill stroke"
         d="m 73.925761,94.148855 c 0,0 0.307259,-4.53521 1.496029,-6.36002 1.296245,-1.98979 3.819535,-2.77989 5.684297,-4.29469 1.864758,-1.5148 3.361688,-3.62656 5.493658,-4.79302 3.85396,-2.10859 9.46866,-4.47169 12.65178,-3.69123 3.183125,0.78046 2.777915,3.46175 4.679375,4.49012 2.19554,1.18743 5.08947,0.51779 7.29646,1.6838 2.35784,1.2457 4.42304,3.1915 5.87912,5.42557 0.69156,1.06107 0.58823,2.50318 1.23025,3.59494 0.89721,1.52571 3.55468,3.94453 3.55468,3.94453 z"
         id="path78-5"
         sodipodi:nodetypes="cszazsssscc" /><path
         style="fill:#ffcc65;fill-opacity:1;stroke:none;stroke-width:0.529167;stroke-linecap:round;stroke-linejoin:round;stroke-dasharray:none;stroke-opacity:1;paint-order:markers fill stroke"
         d="m 73.925751,94.148845 c 0,0 4.849063,-6.16304 8.163574,-8.07913 3.60282,-2.08277 8.20006,-1.69969 12.03854,-3.30729 1.94721,-0.81552 3.44684,-2.60648 5.47994,-3.175 1.388075,-0.38815 2.889445,-0.23601 4.323085,-0.0874 2.48277,0.25737 5.08947,0.51779 7.29646,1.6838 2.35784,1.2457 4.42305,3.1915 5.87912,5.42556 0.69156,1.06107 0.58823,2.50318 1.23025,3.59494 0.89721,1.52571 3.55468,3.94453 3.55468,3.94453 z"
         id="path86-7"
         sodipodi:nodetypes="casssssscc" /><path
         style="fill:#ffbb33;fill-opacity:1;stroke:none;stroke-width:0.529167;stroke-linecap:round;stroke-linejoin:round;stroke-dasharray:none;stroke-opacity:1;paint-order:markers fill stroke"
         d="m 81.494009,94.148855 c 0,0 2.894396,-3.49477 4.696356,-4.838 2.29298,-1.70926 4.91895,-2.99152 7.60677,-3.96875 3.18256,-1.15711 6.630065,-1.38802 9.921855,-2.18281 2.51567,-0.6074 4.99706,-2.60073 7.50836,-1.97548 2.58769,0.64427 4.42305,3.1915 5.87912,5.42557 0.69156,1.06107 0.58823,2.50318 1.23025,3.59494 0.89721,1.52571 3.55468,3.94453 3.55468,3.94453 z"
         id="path85-4"
         sodipodi:nodetypes="csssssscc" /><path
         style="fill:#ffaa01;fill-opacity:1;stroke:none;stroke-width:0.529167;stroke-linecap:round;stroke-linejoin:round;stroke-dasharray:none;stroke-opacity:1;paint-order:markers fill stroke"
         d="m 88.108595,94.148855 c 0,0 5.23962,-4.17931 8.20208,-5.69789 1.88161,-0.96453 3.874975,-1.91417 5.979675,-2.11667 2.98958,-0.28763 5.9975,0.60337 8.91115,1.33204 2.44896,0.61246 5.03696,1.13449 7.13522,2.53799 1.47119,0.98406 3.55468,3.94453 3.55468,3.94453 z"
         id="path84-0"
         sodipodi:nodetypes="csssscc" /><path
         style="fill:#ffaa00;fill-opacity:1;stroke:none;stroke-width:0.529167;stroke-linecap:round;stroke-linejoin:round;stroke-dasharray:none;stroke-opacity:1;paint-order:markers fill stroke"
         d="m 95.847655,94.148855 c 0,0 3.86952,-3.11495 6.210515,-3.64737 2.56979,-0.58446 5.43219,-0.31877 7.87854,0.66146 1.47215,0.58988 3.70417,2.98591 3.70417,2.98591 z"
         id="path83-9"
         sodipodi:nodetypes="csscc" /><text
         xml:space="preserve"
         style="font-size:16.9333px;line-height:12.6999px;font-family:Bahnschrift;-inkscape-font-specification:Bahnschrift;text-align:start;letter-spacing:0px;word-spacing:0px;text-orientation:sideways;text-anchor:start;fill:#999999;fill-opacity:1;stroke:none;stroke-width:0.529167;stroke-linecap:round;stroke-linejoin:round;stroke-dasharray:none;stroke-opacity:1;paint-order:markers fill stroke"
         x="15.020811"
         y="114.24226"
         id="text86-2"><tspan
           sodipodi:role="line"
           id="tspan86-3"
           style="font-style:normal;font-variant:normal;font-weight:normal;font-stretch:condensed;font-size:16.9333px;line-height:12.6999px;font-family:Bahnschrift;-inkscape-font-specification:'Bahnschrift Condensed';text-align:start;text-anchor:start;fill:#000000;fill-opacity:1;stroke-width:0.529167"
           x="15.020811"
           y="114.24226">UNDER CONSTRUCTION</tspan></text></g></g></svg>
